<?xml version="1.0" encoding="utf-8"?>
<!-- Generator: Adobe Illustrator 15.0.0, SVG Export Plug-In  -->
<!DOCTYPE svg PUBLIC "-//W3C//DTD SVG 1.1//EN" "http://www.w3.org/Graphics/SVG/1.1/DTD/svg11.dtd" [
	<!ENTITY ns_flows "http://ns.adobe.com/Flows/1.0/">
]>
<svg version="1.1"
	 xmlns="http://www.w3.org/2000/svg" xmlns:xlink="http://www.w3.org/1999/xlink" xmlns:a="http://ns.adobe.com/AdobeSVGViewerExtensions/3.0/"
	 x="0px" y="0px" width="73px" height="94px" viewBox="-0.996 -1.006 73 94"
	 overflow="visible" enable-background="new -0.996 -1.006 73 94" xml:space="preserve">
<defs>
</defs>
<path fill="#FFFFFF" d="M0.517,35.447c0,14.176,8.408,26.385,20.51,31.921l1.257,0.581l-0.865,1.086
	c-0.22,0.278-0.465,0.599-0.707,0.939c-0.899,1.315-1.779,2.912-1.796,4.625v0.018c0,0.779,0.25,1.621,0.819,2.311
	c0.544,0.676,1.391,1.25,2.599,1.684l1.009,0.363l-2.273,6.621h4.899l-2.991,5.778h25.123l-3.194-5.778h5.331l-2.252-6.608
	l1.018-0.357c1.228-0.438,2.088-1.017,2.646-1.702c0.568-0.689,0.813-1.531,0.813-2.311v-0.04c-0.018-1.702-0.904-3.296-1.787-4.594
	c-0.252-0.374-0.517-0.713-0.757-1.012l-0.869-1.077l1.255-0.581c12.039-5.566,20.392-17.74,20.392-31.866
	c0-19.383-15.71-35.098-35.091-35.098C16.229,0.35,0.517,16.064,0.517,35.447"/>
<path fill="#FBEE35" d="M47.675,29.391c0,2.266-1.843,4.106-4.117,4.106c-2.272,0-4.112-1.841-4.112-4.106
	c0-2.277,1.84-4.122,4.112-4.122C45.832,25.269,47.675,27.113,47.675,29.391"/>
<path fill="#FBEE35" d="M23.822,83.334L28.2,70.552c0.526,0.106,1.045,0.197,1.58,0.286c0.611,2.732,3.041,4.77,5.95,4.772
	c2.922-0.003,5.356-2.05,5.967-4.785c0.514-0.087,1.016-0.192,1.518-0.304l4.395,12.812H23.822z"/>
<polygon fill="#EE342F" points="9.062,23.72 11.809,23.72 13.783,27.791 15.85,23.72 18.742,23.72 14.96,30.938 14.96,35.055 
	12.354,35.055 12.354,30.792 "/>
<polygon fill="#EE342F" points="18.956,35.055 18.956,24.004 18.956,23.72 24.72,23.72 24.72,26.18 21.58,26.18 21.58,28.151 
	24.72,28.151 24.72,30.636 21.58,30.636 21.58,32.595 24.72,32.595 24.72,35.055 "/>
<polygon fill="#EE342F" points="25.739,35.055 25.739,24.004 25.739,23.72 28.358,23.72 28.358,32.66 31.573,32.66 31.573,35.055 
	"/>
<polygon fill="#EE342F" points="32.505,35.055 32.505,24.004 32.505,23.72 35.129,23.72 35.129,32.66 38.348,32.66 38.348,35.055 
	"/>
<path fill="#EE342F" d="M43.569,23.629c3.256,0.006,5.903,2.566,5.903,5.762c0,3.204-2.647,5.781-5.903,5.783
	c-3.237-0.002-5.876-2.579-5.876-5.783C37.693,26.195,40.333,23.635,43.569,23.629 M43.569,32.595c1.828,0,3.261-1.438,3.261-3.204
	c0-1.763-1.433-3.195-3.261-3.195c-1.802,0-3.25,1.438-3.255,3.195C40.319,31.157,41.767,32.595,43.569,32.595"/>
<polygon fill="#EE342F" points="51.269,23.72 52.851,29.172 54.435,23.72 56.24,23.72 57.811,29.087 59.256,23.72 61.831,23.72 
	58.749,35.055 56.819,35.055 55.319,29.641 53.839,35.055 51.915,35.055 48.666,23.72 "/>
<path fill="#EE342F" d="M17.188,38.063c1.72,0.007,4.755,0.213,6.255,2.691c0.517,0.882,0.773,1.932,0.773,2.989
	c0,1.039-0.252,2.086-0.773,2.971c-1.407,2.424-3.583,2.678-5.653,2.678h-0.132h-2.843V38.063H17.188 M17.976,46.95
	c0.143,0,0.302-0.001,0.684-0.021c1.208-0.116,1.984-0.388,2.644-1.626c0.199-0.386,0.31-0.948,0.31-1.521
	c0-0.719-0.172-1.456-0.449-1.869c-0.823-1.312-2.396-1.405-3.577-1.405h-0.154v6.441h0.064
	C17.742,46.949,17.851,46.95,17.976,46.95"/>
<path fill="#EE342F" d="M29.949,49.393l-2.392-3.167v3.167h-2.618V38.348v-0.284h3.292c1.573-0.014,3.184,0.245,4.127,2.114
	c0.263,0.543,0.403,1.137,0.403,1.758c0,0.727-0.206,1.48-0.658,2.121c-0.54,0.77-1.304,1.183-1.947,1.354l2.971,3.981H29.949z
	 M28.811,43.279c0.763,0,1.368-0.617,1.368-1.357c0-0.734-0.605-1.347-1.368-1.347h-1.254v2.704H28.811"/>
<polygon fill="#EE342F" points="33.616,49.393 33.616,38.348 33.616,38.063 39.374,38.063 39.374,40.52 36.242,40.52 36.242,42.493 
	39.374,42.493 39.374,44.978 36.242,44.978 36.242,46.938 39.374,46.938 39.374,49.393 "/>
<path fill="#EE342F" d="M42.3,49.205c-1.652-0.686-2.293-2.084-2.279-3.338v-0.284h2.65l0.03,0.239
	c0.098,0.504,0.119,0.854,0.759,1.087c0.109,0.029,0.235,0.052,0.357,0.052c0.257,0,0.524-0.074,0.742-0.234
	c0.281-0.186,0.412-0.504,0.412-0.811c0-0.054,0-0.116-0.014-0.161c-0.112-0.579-0.433-0.751-1.36-1.112l-0.315-0.116
	c-1.595-0.597-2.694-1.339-2.831-2.958c-0.008-0.075-0.008-0.157-0.008-0.254c0-0.876,0.396-2.143,1.565-2.866
	c0.547-0.337,1.228-0.479,1.886-0.479c0.603,0,1.2,0.115,1.685,0.354c1.289,0.626,1.914,1.872,1.914,2.918v0.288h-2.649
	l-0.047-0.226c-0.073-0.306-0.241-0.681-0.653-0.772c-0.074-0.021-0.16-0.023-0.234-0.023c-0.19,0-0.351,0.05-0.504,0.188
	c-0.169,0.15-0.242,0.333-0.242,0.535c0,0.073,0.007,0.14,0.032,0.219c0.09,0.385,0.453,0.625,1.047,0.784l0.325,0.081
	c1.845,0.525,2.926,1.436,3.108,3.029c0.015,0.13,0.015,0.267,0.015,0.411c0.006,0.972-0.377,2.241-1.612,3.086
	c-0.641,0.435-1.447,0.663-2.261,0.667C43.302,49.504,42.774,49.414,42.3,49.205"/>
<path fill="#EE342F" d="M50.475,49.205c-1.645-0.686-2.292-2.084-2.28-3.338v-0.284h2.649l0.042,0.239
	c0.091,0.505,0.106,0.854,0.755,1.087c0.109,0.029,0.229,0.052,0.353,0.052c0.26,0,0.521-0.074,0.738-0.234
	c0.283-0.186,0.417-0.504,0.417-0.811c0-0.054-0.011-0.111-0.014-0.161c-0.114-0.579-0.436-0.751-1.366-1.112l-0.313-0.116
	c-1.594-0.597-2.694-1.339-2.827-2.958c-0.006-0.075-0.014-0.157-0.014-0.254c0-0.876,0.397-2.143,1.568-2.866
	c0.558-0.337,1.231-0.479,1.887-0.479c0.602,0,1.196,0.115,1.69,0.354c1.287,0.626,1.907,1.872,1.907,2.918v0.288h-2.647
	l-0.05-0.226c-0.068-0.306-0.243-0.681-0.654-0.772c-0.076-0.021-0.155-0.023-0.228-0.023c-0.196,0-0.357,0.05-0.508,0.188
	c-0.172,0.15-0.24,0.333-0.24,0.535c0,0.073,0.006,0.145,0.032,0.219c0.085,0.385,0.448,0.625,1.052,0.784l0.32,0.081
	c1.847,0.525,2.922,1.436,3.102,3.029c0.014,0.13,0.019,0.267,0.019,0.411c0.007,0.977-0.378,2.241-1.608,3.086
	c-0.646,0.435-1.451,0.663-2.264,0.667C51.473,49.504,50.949,49.414,50.475,49.205"/>
<path fill="#EE342F" d="M71.336,35.667c0-19.7-15.973-35.661-35.663-35.667C15.97,0.006,0.003,15.967,0,35.667
	c0,14.409,8.551,26.817,20.848,32.45c-0.232,0.289-0.482,0.625-0.749,0.998c-0.91,1.346-1.925,3.096-1.951,5.142
	c-0.008,0.995,0.307,2.088,1.041,2.979c0.697,0.86,1.717,1.521,3.036,1.998l-2.381,6.946h4.566l-2.947,5.692h28.341l-3.148-5.692
	h4.931l-2.355-6.927c1.334-0.477,2.374-1.144,3.085-2.018c0.732-0.891,1.048-1.983,1.036-2.983
	c-0.021-2.041-1.036-3.791-1.951-5.137c-0.273-0.402-0.549-0.749-0.795-1.059C62.84,62.41,71.336,50.03,71.336,35.667
	 M21.392,75.446c-0.289-0.366-0.391-0.714-0.401-1.189c-0.026-0.97,0.658-2.419,1.447-3.522c0.381-0.56,0.782-1.047,1.077-1.375
	c0.038-0.046,0.064-0.08,0.099-0.119c0.604,0.213,1.214,0.42,1.824,0.598l-2.29,6.706C22.2,76.195,21.677,75.798,21.392,75.446
	 M25.2,89.601l1.773-3.421h7.269v3.421H25.2z M45.944,89.601h-9.418V86.18h7.525L45.944,89.601z M23.822,83.334L28.2,70.552
	c0.526,0.106,1.045,0.197,1.58,0.286c0.611,2.732,3.041,4.77,5.95,4.772c2.922-0.003,5.356-2.05,5.967-4.785
	c0.514-0.087,1.016-0.192,1.518-0.304l4.395,12.812H23.822z M32.614,71.197c1.012,0.084,2.028,0.136,3.059,0.136
	c1.071,0,2.133-0.052,3.185-0.144c-0.604,1.108-1.781,1.854-3.129,1.855C34.388,73.043,33.221,72.298,32.614,71.197 M50.111,75.446
	c-0.289,0.354-0.827,0.759-1.801,1.115l-2.296-6.759c0.623-0.186,1.229-0.38,1.831-0.612c0.365,0.41,0.967,1.126,1.506,1.974
	c0.661,1.024,1.174,2.241,1.163,3.088C50.5,74.732,50.401,75.08,50.111,75.446 M35.673,67.354
	c-8.758-0.006-16.667-3.546-22.404-9.288c-5.746-5.739-9.285-13.643-9.285-22.399c0-8.755,3.539-16.661,9.285-22.405
	c5.737-5.735,13.646-9.277,22.404-9.277c8.747,0,16.658,3.542,22.397,9.277c5.735,5.744,9.276,13.65,9.281,22.405
	c-0.005,8.757-3.545,16.66-9.281,22.399C52.331,63.809,44.42,67.349,35.673,67.354"/>
<path fill="#EE342F" d="M28.529,77.574h1.018c0.527,0,1.008,0.066,1.313,0.617c0.177,0.34,0.177,0.783-0.081,1.124
	c-0.208,0.276-0.533,0.394-0.748,0.421l0.982,1.222h-0.836l-0.96-1.178v1.178h-0.688V77.574z M29.74,79.212
	c0.311,0,0.561-0.233,0.561-0.511c0-0.288-0.25-0.517-0.561-0.517h-0.522v1.027H29.74z"/>
<polygon fill="#EE342F" points="31.588,77.574 33.356,77.574 33.356,78.165 32.292,78.165 32.292,78.968 33.356,78.968 
	33.356,79.57 32.292,79.57 32.292,80.364 33.356,80.364 33.356,80.958 31.588,80.958 "/>
<polygon fill="#EE342F" points="33.848,77.574 35.798,77.574 35.798,78.159 35.172,78.159 35.172,80.958 34.474,80.958 
	34.474,78.159 33.848,78.159 "/>
<path fill="#EE342F" d="M37.152,77.574h0.527l1.471,3.384h-0.715l-0.409-0.904h-1.191l-0.39,0.904h-0.734L37.152,77.574z
	 M37.055,79.482h0.745l-0.386-0.922L37.055,79.482z"/>
<rect x="39.609" y="77.574" fill="#EE342F" width="0.69" height="3.387"/>
<polygon fill="#EE342F" points="41.027,77.574 41.724,77.574 41.724,80.387 42.82,80.387 42.82,80.958 41.027,80.958 "/>
</svg>
